<svg height="256px" width="256px" version="1.1" id="Capa_1" xmlns="http://www.w3.org/2000/svg"
  xmlns:xlink="http://www.w3.org/1999/xlink" viewBox="0 0 271.71 271.71" xml:space="preserve" fill="#000000">
  <g id="SVGRepo_bgCarrier" stroke-width="0"></g>
  <g id="SVGRepo_tracerCarrier" stroke-linecap="round" stroke-linejoin="round"></g>
  <g id="SVGRepo_iconCarrier">
    <g>
      <path style="fill:rgba(255, 255, 255, 0.7);"
        d="M85.184,107.582h110.754c6.021,0,10.94,4.92,10.94,10.94v0.003c0,6.019-4.92,10.941-10.94,10.941 H85.184c-6.019,0-10.939-4.922-10.939-10.941v-0.003C74.245,112.502,79.165,107.582,85.184,107.582z">
      </path>
      <path style="fill:rgba(255, 255, 255, 0.7);"
        d="M61.403,22.851l59.747,81.415l-17.585-0.004L50.11,31.136c-2.267-3.112-1.267-7.11,1.5-9.785 l0.008-0.004C54.723,19.069,59.121,19.747,61.403,22.851L61.403,22.851z">
      </path>
      <path style="fill:rgba(255, 255, 255, 0.7);"
        d="M96.798,261.102h90.526c2.919,0,5.306,2.387,5.306,5.307v5.305H91.493v-5.305 C91.493,263.489,93.879,261.102,96.798,261.102L96.798,261.102z">
      </path>
      <path style="fill:rgba(255, 255, 255, 0.7);"
        d="M79.551,131.784H203.9c30.883,37.766,22.867,94.549-15.585,125.344H96.792 C56.623,230.487,44.32,172.573,79.551,131.784L79.551,131.784z">
      </path>
    </g>
  </g>
</svg>